<svg width="122" height="39" viewBox="0 0 122 39" fill="none" xmlns="http://www.w3.org/2000/svg">
<path d="M34.0232 19.4999C34.0232 27.7971 27.3185 34.5207 19.0511 34.5207C10.7838 34.5207 4.0791 27.7971 4.0791 19.4999C4.0791 11.2026 10.7838 4.479 19.0511 4.479C27.3185 4.479 34.0232 11.2026 34.0232 19.4999Z" stroke="white"/>
<path d="M23.7333 11.2798H23.1404C22.4794 11.2775 21.8263 11.4254 21.2304 11.7124C20.6344 11.9994 20.1109 12.418 19.6992 12.9369L19.6553 12.9932C19.5959 13.0666 19.539 13.1482 19.4926 13.2184L19.4723 13.2486L19.443 13.2706C19.3312 13.3542 19.1953 13.3992 19.0559 13.3987C18.9184 13.3997 18.7846 13.3549 18.6752 13.2714L18.6549 13.2559L18.6394 13.2355L18.611 13.2004L18.5841 13.1719L18.5695 13.1564L18.5581 13.1392C18.5474 13.1225 18.5357 13.1065 18.5231 13.0911L18.5174 13.0838L18.5077 13.0691L18.4979 13.0601L18.4825 13.034L18.4768 13.025L18.4629 13.0095L18.454 12.9965L18.4434 12.9834C18.0322 12.4516 17.5048 12.0214 16.9019 11.7261C16.299 11.4308 15.6366 11.2781 14.9656 11.2798H14.3711C13.0876 11.2813 11.857 11.7934 10.9494 12.7038C10.0417 13.6142 9.53102 14.8485 9.5293 16.136V20.6423C9.53166 22.487 10.2633 24.2556 11.5637 25.56C12.8642 26.8644 14.6272 27.5981 16.4662 27.6003C16.5682 27.6003 16.6661 27.5596 16.7382 27.4872C16.8104 27.4148 16.8509 27.3167 16.8509 27.2143C16.8509 27.112 16.8104 27.0138 16.7382 26.9414C16.6661 26.8691 16.5682 26.8284 16.4662 26.8284C14.8306 26.8275 13.2622 26.1756 12.1052 25.0158C10.9483 23.856 10.2974 22.283 10.2955 20.6423V16.136C10.2972 15.0533 10.7268 14.0153 11.4902 13.2499C12.2536 12.4844 13.2884 12.0538 14.3678 12.0525H14.9656C15.5123 12.0509 16.0523 12.1733 16.5453 12.4105C17.0382 12.6477 17.4713 12.9936 17.8123 13.4224V13.4273L17.8163 13.4322L17.8416 13.4672L17.8473 13.4762L17.8529 13.486C17.8998 13.5644 17.9542 13.6379 18.0156 13.7055L18.0205 13.7096L18.0425 13.7349L18.0571 13.7495C18.1876 13.8817 18.3429 13.9866 18.5141 14.0583C18.6852 14.13 18.8688 14.167 19.0542 14.1673C19.2457 14.1668 19.4351 14.128 19.6114 14.0531L19.6228 14.0473H19.635C19.668 14.0348 19.6994 14.0184 19.7285 13.9984L19.7431 13.9886L19.7496 13.9837H19.7561C19.8122 13.9474 19.865 13.9061 19.9139 13.8605C19.9911 13.79 20.0639 13.7148 20.1319 13.6353L20.1588 13.6035H20.1709L20.1799 13.5921C20.2084 13.5594 20.2376 13.5244 20.2612 13.4933V13.4893C20.3076 13.4338 20.3548 13.371 20.4166 13.2861L20.4312 13.2673L20.4377 13.2584L20.445 13.2502C20.7848 12.8739 21.2 12.5737 21.6633 12.3693C22.1266 12.1648 22.6278 12.0608 23.1339 12.0639H23.7268C24.806 12.0654 25.8405 12.4961 26.6036 13.2616C27.3667 14.0271 27.7961 15.0649 27.7976 16.1475V20.6757C27.7851 22.3443 27.1164 23.9404 25.9369 25.1169C24.7574 26.2935 23.1625 26.9552 21.4991 26.9581C18.0937 26.9581 15.2698 24.171 15.2039 20.7451V20.7181V20.5142C15.2289 19.7207 15.4863 18.9522 15.9441 18.3047C16.4019 17.6571 17.0397 17.1592 17.7779 16.8732C18.5161 16.5872 19.322 16.5257 20.0948 16.6965C20.8676 16.8672 21.5732 17.2626 22.1233 17.8332C22.6735 18.4039 23.0438 19.1245 23.1881 19.905C23.3323 20.6856 23.2441 21.4915 22.9345 22.222C22.6249 22.9526 22.1075 23.5754 21.447 24.0128C20.7866 24.4501 20.0123 24.6825 19.221 24.681C19.1189 24.6819 19.0215 24.7235 18.95 24.7966C18.8786 24.8697 18.839 24.9682 18.8399 25.0706C18.8409 25.1729 18.8824 25.2707 18.9552 25.3424C19.028 25.4141 19.1263 25.4538 19.2283 25.4528C20.1715 25.4532 21.094 25.1747 21.8804 24.6522C22.6667 24.1296 23.2822 23.3862 23.6497 22.5148C24.0173 21.6433 24.1206 20.6826 23.9469 19.7525C23.7732 18.8225 23.3301 17.9644 22.6731 17.2855C22.016 16.6067 21.174 16.1372 20.2524 15.9356C19.3308 15.7341 18.3704 15.8095 17.4913 16.1524C16.6121 16.4954 15.8533 17.0906 15.3094 17.8637C14.7656 18.6369 14.461 19.5536 14.4337 20.4995V20.5068C14.4337 20.5256 14.4337 20.5435 14.4337 20.5631V20.5843C14.4337 20.6039 14.4337 20.6219 14.4337 20.6423C14.4329 20.655 14.4329 20.6678 14.4337 20.6806V20.7271C14.4337 20.7426 14.4337 20.7581 14.4337 20.772V20.7842C14.4735 22.6498 15.245 24.4244 16.5809 25.7229C17.9167 27.0215 19.709 27.7393 21.5691 27.7206C23.4291 27.7019 25.2068 26.9483 26.5164 25.6231C27.826 24.298 28.562 22.5083 28.5646 20.6423V16.136C28.5628 14.8503 28.0536 13.6176 27.1482 12.7075C26.2428 11.7975 25.015 11.2841 23.7333 11.2798V11.2798Z" fill="white"/>
<path d="M19.1136 13.1686C19.1395 13.1655 19.165 13.1603 19.1901 13.1531C19.1651 13.1607 19.1395 13.1659 19.1136 13.1686ZM18.9111 13.1458C18.8873 13.1368 18.8645 13.1256 18.8428 13.1123C18.8632 13.1253 18.8847 13.1365 18.907 13.1458H18.9111ZM19.1136 13.1686H19.0786H19.1136ZM19.0323 13.1686H19.0054H19.0323ZM18.9379 13.1515L18.9143 13.1433L18.9379 13.1515ZM19.0616 13.171H19.0819C19.0654 13.1723 19.0488 13.1723 19.0323 13.171H19.0616ZM19.0054 13.167C18.9826 13.1634 18.96 13.1583 18.9379 13.1515C18.9576 13.1588 18.9777 13.1648 18.9981 13.1694L19.0054 13.167Z" fill="#E53516"/>
<path d="M27.1076 11.4723H26.8799V11.3042H27.546V11.4723H27.3183V12.0507H27.1076V11.4723Z" fill="white"/>
<path d="M28.2963 12.0511V11.6554L28.1052 11.9817H28.0117L27.8165 11.6676V12.0527H27.6221V11.3062H27.7953L28.0564 11.7369L28.3118 11.3062H28.485V12.0527L28.2963 12.0511Z" fill="white"/>
<path d="M43.7244 15.6831C44.6614 15.6831 45.5333 16.0269 46.3401 16.7144C47.1361 17.3921 47.5343 18.2872 47.5349 19.3995C47.5349 19.7743 47.434 20.0449 47.2323 20.2113C47.0306 20.3778 46.718 20.4613 46.2945 20.4618L41.8058 20.4308C41.8958 20.9671 42.1352 21.3843 42.5239 21.6824C42.9127 21.9805 43.3939 22.1298 43.9676 22.1303C44.3206 22.1303 44.7389 22.024 45.2226 21.8113C45.5756 21.6481 45.8225 21.5666 45.9635 21.5666C46.0541 21.5636 46.1443 21.5796 46.2283 21.6136C46.3123 21.6476 46.3884 21.6988 46.4515 21.764C46.5136 21.8281 46.5624 21.904 46.5949 21.9872C46.6275 22.0704 46.6431 22.1593 46.641 22.2487C46.641 22.5326 46.4784 22.81 46.153 23.0833C45.5381 23.5185 44.782 23.736 43.8846 23.736C43.2032 23.7417 42.5283 23.6027 41.9042 23.3281C41.2602 23.035 40.7194 22.5539 40.3523 21.9476C39.9489 21.3101 39.7472 20.5717 39.7472 19.7324C39.7424 19.1284 39.8689 18.5306 40.1181 17.9807C40.3366 17.477 40.6711 17.0324 41.0941 16.6834C41.8998 16.0165 42.7766 15.6831 43.7244 15.6831ZM41.8058 19.0658H45.5853C45.5143 18.5404 45.3101 18.1324 44.9729 17.842C44.6241 17.5494 44.1804 17.3955 43.726 17.4095C43.2578 17.3971 42.8 17.5502 42.4328 17.842C42.0739 18.1313 41.8649 18.5393 41.8058 19.0658Z" fill="white"/>
<path d="M54.9589 15.7291C55.0898 15.7296 55.2194 15.7561 55.3401 15.8069C55.4608 15.8577 55.5704 15.9319 55.6624 16.0253C55.7598 16.1117 55.8377 16.2178 55.8911 16.3366C55.9445 16.4555 55.9722 16.5843 55.9723 16.7147V22.7679C55.974 22.899 55.9478 23.029 55.8957 23.1492C55.8435 23.2695 55.7665 23.3773 55.6698 23.4655C55.576 23.558 55.4649 23.6311 55.343 23.6805C55.221 23.73 55.0905 23.7548 54.9589 23.7535C54.8285 23.755 54.6992 23.7303 54.5785 23.6808C54.4578 23.6313 54.3482 23.5581 54.2562 23.4655C54.1613 23.3762 54.086 23.268 54.0352 23.1479C53.9843 23.0278 53.9591 22.8984 53.961 22.7679V22.479C53.8802 22.7624 53.6383 23.0507 53.2355 23.3439C52.8321 23.6267 52.3278 23.7682 51.7227 23.7682C50.8459 23.7682 50.0296 23.4448 49.2737 22.7981C48.4669 22.0692 48.0635 21.0428 48.0635 19.7188C48.0635 18.8687 48.2576 18.1278 48.6458 17.4963C49.0341 16.8648 49.5004 16.4047 50.0448 16.1158C50.56 15.8351 51.1364 15.6866 51.7227 15.6834C52.2081 15.6761 52.6863 15.8022 53.1053 16.0481C53.4823 16.255 53.7825 16.5787 53.961 16.9709V16.7123C53.9605 16.5832 53.9865 16.4554 54.0373 16.3368C54.0881 16.2182 54.1626 16.1114 54.2562 16.0228C54.3471 15.9283 54.4564 15.8535 54.5772 15.8029C54.6981 15.7524 54.828 15.7273 54.9589 15.7291V15.7291ZM52.0862 22.0548C52.5802 22.0548 53.0338 21.8625 53.4469 21.4779C53.8503 21.0841 54.052 20.4978 54.052 19.7188C54.052 18.9296 53.8503 18.3481 53.4469 17.9745C53.0435 17.5774 52.5899 17.3788 52.0862 17.3788C51.544 17.3788 51.0652 17.5864 50.6499 18.0014C50.2465 18.4061 50.0448 18.9772 50.0448 19.7148C50.0448 20.4627 50.2465 21.039 50.6499 21.4437C50.8348 21.6387 51.0578 21.7936 51.3048 21.8988C51.5519 22.0039 51.8179 22.057 52.0862 22.0548Z" fill="white"/>
<path d="M60.0998 15.6832C60.603 15.6796 61.1014 15.7805 61.5638 15.9794C61.9799 16.147 62.341 16.4279 62.6065 16.7904C62.7542 16.9827 62.8394 17.216 62.8505 17.4586C62.8561 17.5595 62.8401 17.6605 62.8034 17.7546C62.7668 17.8488 62.7105 17.934 62.6382 18.0044C62.4846 18.1404 62.2841 18.211 62.0795 18.2011C61.9171 18.2021 61.7568 18.1641 61.6121 18.0903C61.4674 18.0165 61.3423 17.909 61.2474 17.7768C61.1155 17.6153 60.9494 17.4853 60.7612 17.3961C60.573 17.3069 60.3673 17.2608 60.1592 17.2611C59.8664 17.2611 59.6368 17.327 59.4703 17.4586C59.3908 17.5184 59.3268 17.5964 59.2835 17.6861C59.2402 17.7758 59.2189 17.8746 59.2214 17.9742C59.2214 18.3283 59.4836 18.581 60.0079 18.7322L60.9302 19.0055C61.6655 19.2079 62.2199 19.4834 62.5935 19.832C62.9671 20.1807 63.1536 20.6586 63.1531 21.2656C63.1531 22.0543 62.8456 22.6662 62.2308 23.1014C61.6256 23.5256 60.8936 23.7378 60.0348 23.7378C58.8852 23.7378 58.0177 23.3739 57.4321 22.6461C57.161 22.2719 57.0254 21.9531 57.0254 21.6898C57.0236 21.4934 57.0966 21.3037 57.2296 21.1595C57.2993 21.0834 57.3848 21.0236 57.4801 20.9843C57.5754 20.9449 57.6781 20.9271 57.781 20.9319C58.0635 20.9319 58.3346 21.0937 58.5943 21.4173C58.7623 21.6388 58.98 21.8174 59.2297 21.9387C59.4794 22.0599 59.7541 22.1203 60.0315 22.1149C60.3834 22.1149 60.6632 22.0467 60.8709 21.9101C60.9651 21.8556 61.0433 21.7771 61.0977 21.6825C61.1521 21.588 61.1808 21.4808 61.1807 21.3716C61.1807 21.0078 60.8825 20.7399 60.2861 20.568L59.4239 20.3102C57.9816 19.8957 57.261 19.1219 57.2621 17.9889C57.2621 17.2709 57.5392 16.7099 58.0933 16.3057C58.6648 15.8913 59.3337 15.6837 60.0998 15.6832Z" fill="white"/>
<path d="M70.3532 15.7288C70.4751 15.7257 70.5963 15.7476 70.7095 15.7932C70.8226 15.8388 70.9253 15.9071 71.0111 15.994C71.0958 16.0753 71.1629 16.1731 71.2084 16.2814C71.2538 16.3898 71.2767 16.5063 71.2755 16.6238C71.2664 16.7822 71.2254 16.9371 71.1551 17.0791L67.2365 25.9227C67.0456 26.3877 66.7281 26.6202 66.284 26.6202C66.168 26.6217 66.053 26.5989 65.9463 26.5532C65.8396 26.5075 65.7435 26.4401 65.6643 26.3551C65.5816 26.2727 65.5162 26.1745 65.4721 26.0663C65.4279 25.9581 65.4059 25.8421 65.4073 25.7252C65.4149 25.5683 65.4507 25.4141 65.513 25.2699L66.3751 23.2979L63.5626 17.0791C63.5002 16.935 63.4641 16.7808 63.4561 16.6238C63.4551 16.5063 63.478 16.3897 63.5236 16.2814C63.5692 16.173 63.6365 16.0752 63.7212 15.994C63.8046 15.9082 63.9047 15.8404 64.0152 15.7948C64.1257 15.7492 64.2443 15.7267 64.3638 15.7288C64.8068 15.7288 65.1242 15.9613 65.3162 16.4264L67.3438 21.1317L69.4154 16.4288C69.6068 15.9622 69.9194 15.7288 70.3532 15.7288Z" fill="white"/>
<path d="M82.2821 15.6986C83.1589 15.6986 83.857 16.0046 84.3764 16.6165C84.8959 17.2284 85.1553 18.1308 85.1548 19.3236V22.7504C85.1568 22.8808 85.1316 23.0102 85.0809 23.1303C85.0302 23.2505 84.9551 23.3586 84.8604 23.448C84.7683 23.5408 84.6585 23.614 84.5377 23.6635C84.4168 23.713 84.2873 23.7376 84.1568 23.736C84.0287 23.7368 83.9018 23.7117 83.7836 23.6622C83.6654 23.6127 83.5583 23.5399 83.4688 23.448C83.374 23.3586 83.2989 23.2505 83.2482 23.1303C83.1975 23.0102 83.1724 22.8808 83.1743 22.7504V19.3236C83.1743 18.697 83.0306 18.2192 82.7433 17.8901C82.4559 17.561 82.0652 17.3978 81.5713 17.4006C81.182 17.3925 80.8023 17.5213 80.4977 17.7644C80.0232 18.1289 79.7562 18.5738 79.6965 19.0993V22.7553C79.6985 22.8858 79.6733 23.0153 79.6224 23.1354C79.5716 23.2556 79.4963 23.3637 79.4013 23.4529C79.3094 23.5458 79.1999 23.6192 79.0791 23.6686C78.9584 23.7181 78.829 23.7427 78.6986 23.7409C78.5705 23.7418 78.4435 23.7167 78.3253 23.6673C78.207 23.6178 78.1 23.5449 78.0105 23.4529C77.9155 23.3637 77.8402 23.2556 77.7893 23.1354C77.7385 23.0153 77.7132 22.8858 77.7152 22.7553V19.3285C77.7152 18.7019 77.5715 18.2241 77.2842 17.895C76.9968 17.5659 76.6061 17.4027 76.1122 17.4055C75.8181 17.4013 75.5275 17.4691 75.2655 17.6029C75.0326 17.7176 74.8325 17.8897 74.6839 18.103C74.563 18.2773 74.4589 18.4628 74.3733 18.657C74.3103 18.8001 74.2647 18.9502 74.2374 19.1042V22.7602C74.2394 22.8906 74.2142 23.02 74.1635 23.1401C74.1128 23.2602 74.0377 23.3684 73.943 23.4578C73.8535 23.5497 73.7464 23.6225 73.6282 23.672C73.51 23.7215 73.383 23.7466 73.2549 23.7458C73.1244 23.7474 72.9949 23.7228 72.8741 23.6733C72.7532 23.6238 72.6435 23.5506 72.5514 23.4578C72.4566 23.3685 72.3814 23.2604 72.3307 23.1402C72.28 23.0201 72.2549 22.8906 72.257 22.7602V16.7299C72.2593 16.4651 72.3652 16.2118 72.5518 16.0246C72.7385 15.8373 72.991 15.7311 73.2549 15.7288C73.3837 15.7284 73.5112 15.7545 73.6295 15.8055C73.7478 15.8564 73.8545 15.9311 73.943 16.0249C74.0375 16.1161 74.1123 16.2256 74.1629 16.3469C74.2136 16.4681 74.2389 16.5984 74.2374 16.7299V17.4887C74.2879 17.1237 74.5449 16.7394 75.0085 16.3358C75.4927 15.9105 76.0975 15.698 76.823 15.6986C77.4015 15.6844 77.97 15.8512 78.4497 16.1759C78.9084 16.4952 79.2386 16.9681 79.4403 17.5947C79.6857 17.0456 80.0751 16.5736 80.5668 16.2289C81.0682 15.8746 81.6688 15.6889 82.2821 15.6986V15.6986Z" fill="white"/>
<path d="M90.2666 15.6831C91.2046 15.6831 92.0768 16.0269 92.8831 16.7144C93.6785 17.3921 94.0765 18.2872 94.0771 19.3995C94.0771 19.7743 93.9762 20.0449 93.7745 20.2113C93.5728 20.3778 93.2605 20.4613 92.8375 20.4618L88.3463 20.4308C88.4363 20.9671 88.6757 21.3843 89.0645 21.6824C89.4533 21.9805 89.9347 22.1298 90.509 22.1303C90.8614 22.1303 91.2797 22.024 91.7639 21.8113C92.1158 21.6481 92.3628 21.5666 92.5049 21.5666C92.5954 21.5636 92.6856 21.5796 92.7697 21.6136C92.8537 21.6476 92.9297 21.6988 92.9929 21.764C93.0549 21.8281 93.1035 21.904 93.1359 21.9872C93.1683 22.0705 93.1838 22.1593 93.1816 22.2486C93.1816 22.5326 93.0189 22.81 92.6936 23.0833C92.0787 23.5185 91.3228 23.736 90.426 23.736C89.7443 23.7417 89.0691 23.6027 88.4447 23.3281C87.8015 23.0345 87.2614 22.5534 86.8945 21.9476C86.4911 21.3101 86.2896 20.5717 86.2902 19.7324C86.2851 19.1285 86.4114 18.5306 86.6603 17.9807C86.8788 17.477 87.2133 17.0324 87.6363 16.6834C88.4425 16.0165 89.3193 15.6831 90.2666 15.6831ZM88.3463 19.0658H92.1267C92.0556 18.5404 91.8515 18.1324 91.5142 17.842C91.1652 17.5494 90.7212 17.3955 90.2666 17.4095C89.7985 17.397 89.341 17.5501 88.9742 17.842C88.6152 18.1313 88.4059 18.5393 88.3463 19.0658Z" fill="white"/>
<path d="M101.504 12.8316C101.636 12.8306 101.767 12.8563 101.889 12.907C102.011 12.9578 102.121 13.0325 102.214 13.1269C102.309 13.2146 102.386 13.3213 102.438 13.4401C102.49 13.5589 102.517 13.6874 102.516 13.8172V22.7676C102.518 22.8987 102.492 23.0287 102.44 23.149C102.388 23.2692 102.311 23.377 102.214 23.4652C102.12 23.5577 102.009 23.6307 101.887 23.6801C101.766 23.7295 101.635 23.7544 101.504 23.7532C101.373 23.7548 101.244 23.7302 101.123 23.6807C101.002 23.6312 100.892 23.5579 100.8 23.4652C100.706 23.3759 100.63 23.2677 100.58 23.1476C100.529 23.0275 100.504 22.898 100.506 22.7676V22.4788C100.425 22.7622 100.182 23.0504 99.7796 23.3436C99.3762 23.6265 98.8722 23.7679 98.2676 23.7679C97.3908 23.7679 96.5742 23.4445 95.8178 22.7978C95.011 22.0689 94.6079 21.0425 94.6084 19.7186C94.6084 18.8684 94.8025 18.1276 95.1907 17.4961C95.579 16.8646 96.045 16.4044 96.5889 16.1156C97.1044 15.8349 97.681 15.6863 98.2676 15.6831C98.753 15.6757 99.2312 15.8019 99.6503 16.0478C100.026 16.2555 100.325 16.5791 100.503 16.9706V16.712C100.501 16.6572 100.506 16.6023 100.518 16.5488V13.8172C100.525 13.5572 100.631 13.3098 100.814 13.1262C100.998 12.9427 101.245 12.8372 101.504 12.8316V12.8316ZM98.6303 22.0512C99.1238 22.0512 99.5773 21.859 99.991 21.4744C100.394 21.0806 100.596 20.4942 100.596 19.7153C100.596 18.9261 100.394 18.3446 99.991 17.9709C99.5887 17.576 99.1351 17.3786 98.6303 17.3786C98.0881 17.3786 97.6093 17.5861 97.194 18.0011C96.7906 18.4058 96.5889 18.9769 96.5889 19.7145C96.5889 20.4624 96.7906 21.0387 97.194 21.4434C97.3787 21.6381 97.6013 21.7928 97.8479 21.8979C98.0945 22.003 98.36 22.0563 98.6279 22.0545L98.6303 22.0512Z" fill="white"/>
<path d="M104.964 14.6517C104.831 14.6528 104.7 14.6272 104.578 14.5765C104.456 14.5257 104.345 14.4509 104.253 14.3564C104.157 14.2687 104.081 14.162 104.029 14.0432C103.977 13.9243 103.95 13.7959 103.95 13.6661C103.95 13.5363 103.977 13.408 104.029 13.2891C104.081 13.1703 104.157 13.0636 104.253 12.9759C104.345 12.8811 104.456 12.8061 104.578 12.7552C104.7 12.7043 104.831 12.6786 104.964 12.6797C105.093 12.6797 105.222 12.706 105.341 12.7569C105.461 12.8077 105.569 12.8822 105.659 12.9759C105.754 13.0636 105.83 13.1703 105.883 13.2891C105.935 13.408 105.962 13.5363 105.962 13.6661C105.962 13.7959 105.935 13.9243 105.883 14.0432C105.83 14.162 105.754 14.2687 105.659 14.3564C105.569 14.4498 105.461 14.5241 105.341 14.5748C105.222 14.6255 105.093 14.6517 104.964 14.6517ZM104.964 15.7287C105.092 15.7284 105.22 15.7545 105.338 15.8054C105.457 15.8564 105.563 15.9311 105.652 16.0249C105.746 16.1159 105.821 16.2254 105.872 16.3467C105.923 16.468 105.948 16.5984 105.946 16.7298V22.7365C105.949 22.8704 105.924 23.0034 105.873 23.1273C105.823 23.2513 105.747 23.3634 105.652 23.4569C105.563 23.5508 105.457 23.6255 105.338 23.6764C105.22 23.7274 105.092 23.7535 104.964 23.7531C104.832 23.7546 104.702 23.729 104.581 23.6781C104.46 23.6272 104.351 23.5519 104.26 23.4569C104.164 23.3634 104.089 23.2513 104.038 23.1273C103.988 23.0034 103.963 22.8704 103.966 22.7365V16.7298C103.968 16.4651 104.074 16.2118 104.261 16.0245C104.447 15.8373 104.7 15.7311 104.964 15.7287V15.7287Z" fill="white"/>
<path d="M113.991 15.7291C114.122 15.7296 114.251 15.756 114.372 15.8068C114.493 15.8576 114.602 15.9319 114.694 16.0253C114.791 16.1116 114.869 16.2177 114.923 16.3366C114.976 16.4554 115.004 16.5843 115.005 16.7147V22.7679C115.006 22.899 114.98 23.0289 114.928 23.1491C114.876 23.2694 114.799 23.3772 114.702 23.4655C114.608 23.558 114.497 23.631 114.375 23.6804C114.253 23.7298 114.123 23.7547 113.991 23.7535C113.861 23.7551 113.731 23.7304 113.61 23.681C113.489 23.6315 113.38 23.5582 113.288 23.4655C113.193 23.376 113.118 23.2678 113.067 23.1477C113.017 23.0276 112.991 22.8983 112.993 22.7679V22.479C112.913 22.7624 112.671 23.0507 112.267 23.3439C111.863 23.6267 111.359 23.7682 110.755 23.7682C109.878 23.7682 109.062 23.4448 108.305 22.7981C107.499 22.0692 107.096 21.0428 107.096 19.7189C107.096 18.8687 107.29 18.1278 107.678 17.4963C108.066 16.8648 108.533 16.4047 109.077 16.1158C109.592 15.8351 110.169 15.6866 110.755 15.6834C111.24 15.676 111.719 15.8022 112.138 16.0481C112.514 16.2554 112.814 16.579 112.993 16.9709V16.7123C112.993 16.5833 113.019 16.4556 113.069 16.337C113.12 16.2184 113.194 16.1115 113.288 16.0228C113.379 15.9283 113.488 15.8535 113.609 15.803C113.73 15.7525 113.86 15.7273 113.991 15.7291V15.7291ZM111.118 22.0548C111.612 22.0548 112.066 21.8625 112.479 21.4779C112.882 21.0841 113.083 20.4978 113.083 19.7189C113.083 18.9296 112.882 18.3481 112.479 17.9745C112.076 17.5774 111.622 17.3789 111.118 17.3789C110.575 17.3789 110.097 17.5864 109.681 18.0014C109.278 18.4061 109.076 18.9772 109.077 19.7148C109.077 20.4627 109.278 21.039 109.681 21.4437C109.866 21.6386 110.089 21.7934 110.336 21.8986C110.583 22.0037 110.849 22.0568 111.118 22.0548Z" fill="white"/>
<path d="M117.288 23.7232C117.136 23.7246 116.986 23.6957 116.846 23.6383C116.706 23.5809 116.579 23.496 116.472 23.3887C116.365 23.2813 116.28 23.1537 116.223 23.0132C116.166 22.8726 116.137 22.7221 116.138 22.5703C116.127 22.4189 116.152 22.2669 116.211 22.127C116.27 21.9872 116.362 21.8637 116.478 21.7666C116.697 21.5547 116.988 21.435 117.292 21.4321C117.591 21.4345 117.878 21.5553 118.09 21.7684C118.301 21.9815 118.42 22.2696 118.421 22.5703C118.417 22.8732 118.298 23.1632 118.089 23.3813C117.992 23.4981 117.869 23.59 117.729 23.6494C117.59 23.7089 117.439 23.7342 117.288 23.7232V23.7232Z" fill="white"/>
</svg>
