<svg width="35" height="35" viewBox="0 0 51 52" fill="none" xmlns="http://www.w3.org/2000/svg">
<path fill-rule="evenodd" clip-rule="evenodd" d="M25.1228 5.5C20.1629 5.5 15.9646 8.74265 14.3582 13.2446C14.2065 13.67 14.115 13.9234 14.0339 14.0981C14.0251 14.117 14.0172 14.1333 14.0101 14.1474L13.9937 14.1492C13.8369 14.1654 13.6159 14.1667 13.2186 14.1667H12.5615C8.50837 14.1667 5.28076 17.5572 5.28076 21.6667C5.28076 25.7762 8.50837 29.1667 12.5615 29.1667H17.1883L19.1209 27.1667L12.5615 27.1667C9.67708 27.1667 7.28076 24.7369 7.28076 21.6667C7.28076 18.5965 9.67708 16.1667 12.5615 16.1667H13.2186L13.2605 16.1667C13.6001 16.1667 13.9271 16.1668 14.1998 16.1385C14.4989 16.1075 14.8524 16.0334 15.1816 15.8013C15.5278 15.5572 15.7199 15.2162 15.8481 14.9399C15.9727 14.6713 16.0948 14.329 16.228 13.9558L16.2419 13.9168C17.5854 10.1516 21.0698 7.5 25.1228 7.5C29.1759 7.5 32.6603 10.1516 34.0038 13.9168L34.0177 13.9558L34.0177 13.9558C34.1509 14.3291 34.273 14.6714 34.3975 14.9399C34.5258 15.2162 34.7179 15.5572 35.0641 15.8013C35.3933 16.0334 35.7468 16.1075 36.0459 16.1385C36.3185 16.1668 36.6456 16.1667 36.9852 16.1667L37.0271 16.1667H39.9649C41.6218 16.1667 42.9649 17.5098 42.9649 19.1667V24.1667C42.9649 25.8235 41.6218 27.1667 39.9649 27.1667L31.1248 27.1667L33.0574 29.1667H39.9649C42.7263 29.1667 44.9649 26.9281 44.9649 24.1667V19.1667C44.9649 16.4052 42.7263 14.1667 39.9649 14.1667H37.0271C36.6298 14.1667 36.4088 14.1654 36.252 14.1492L36.2355 14.1473C36.2285 14.1333 36.2205 14.117 36.2118 14.0981C36.1307 13.9234 36.0392 13.67 35.8874 13.2446C34.2811 8.74265 30.0827 5.5 25.1228 5.5ZM27.4951 29.1667L27.1228 28.7814V29.1667H27.4951ZM23.1228 29.1667V28.7814L22.7506 29.1667H23.1228Z" fill="#6D54DE"/>
<path d="M25.1228 26L24.4037 25.3051L25.1228 24.5609L25.8419 25.3051L25.1228 26ZM26.1228 45.5C26.1228 46.0523 25.6751 46.5 25.1228 46.5C24.5705 46.5 24.1228 46.0523 24.1228 45.5L26.1228 45.5ZM16.0294 33.9718L24.4037 25.3051L25.8419 26.6949L17.4677 35.3615L16.0294 33.9718ZM25.8419 25.3051L34.2162 33.9718L32.7779 35.3615L24.4037 26.6949L25.8419 25.3051ZM26.1228 26L26.1228 45.5L24.1228 45.5L24.1228 26L26.1228 26Z" fill="#6D54DE"/>
</svg>
