<svg width="21" height="21" viewBox="0 0 21 21" fill="none" xmlns="http://www.w3.org/2000/svg">
<path d="M2.79476 5.05613C2.79476 3.80713 3.80676 2.79513 5.05576 2.79413H6.08476C6.68176 2.79413 7.25376 2.55713 7.67776 2.13713L8.39676 1.41713C9.27776 0.531134 10.7098 0.527134 11.5958 1.40813L11.5968 1.40913L11.6058 1.41713L12.3258 2.13713C12.7498 2.55813 13.3218 2.79413 13.9188 2.79413H14.9468C16.1958 2.79413 17.2088 3.80613 17.2088 5.05613V6.08313C17.2088 6.68013 17.4448 7.25313 17.8658 7.67713L18.5858 8.39713C19.4718 9.27813 19.4768 10.7101 18.5958 11.5961L18.5948 11.5971L18.5858 11.6061L17.8658 12.3261C17.4448 12.7491 17.2088 13.3211 17.2088 13.9181V14.9471C17.2088 16.1961 16.1968 17.2081 14.9478 17.2081H14.9468H13.9168C13.3198 17.2081 12.7468 17.4451 12.3238 17.8661L11.6038 18.5851C10.7238 19.4711 9.29276 19.4761 8.40676 18.5971C8.40576 18.5961 8.40476 18.5951 8.40376 18.5941L8.39476 18.5851L7.67576 17.8661C7.25276 17.4451 6.67976 17.2091 6.08276 17.2081H5.05576C3.80676 17.2081 2.79476 16.1961 2.79476 14.9471V13.9161C2.79476 13.3191 2.55776 12.7471 2.13676 12.3241L1.41776 11.6041C0.531764 10.7241 0.526764 9.29314 1.40676 8.40713C1.40676 8.40613 1.40776 8.40513 1.40876 8.40413L1.41776 8.39513L2.13676 7.67514C2.55776 7.25113 2.79476 6.67913 2.79476 6.08113V5.05613" stroke="#AD64F1" stroke-width="1.5" stroke-linecap="round" stroke-linejoin="round"/>
<path d="M7.43164 12.5716L12.5716 7.43164" stroke="#AD64F1" stroke-width="1.5" stroke-linecap="round" stroke-linejoin="round"/>
<path d="M12.4955 12.5H12.5045" stroke="#AD64F1" stroke-width="2" stroke-linecap="round" stroke-linejoin="round"/>
<path d="M7.4955 7.5H7.5045" stroke="#AD64F1" stroke-width="2" stroke-linecap="round" stroke-linejoin="round"/>
</svg>
