<svg width="29" height="34" viewBox="0 0 29 34" fill="none" xmlns="http://www.w3.org/2000/svg">
<path fill-rule="evenodd" clip-rule="evenodd" d="M14.4465 3.32821C13.0126 2.09633 10.9585 2.09633 9.52467 3.32821L9.52466 3.3282L9.52121 3.3312L2.97729 9.02303C2.20278 9.66367 1.7593 10.6358 1.75003 11.6532H1.75V11.66V21.1056C1.75 23.5273 3.59173 25.5823 5.97291 25.5823H7.89696C8.97228 25.5823 9.77932 24.7209 9.87784 23.7091C9.89697 23.6429 9.90722 23.573 9.90722 23.5006V20.1766C9.90721 19.6941 10.2575 19.3921 10.5843 19.3884H13.4671C13.7956 19.3884 14.1505 19.6906 14.1505 20.1766V23.5107V23.5109C14.1503 24.5597 14.9212 25.505 16 25.5781V24.0591C15.8207 23.9953 15.6504 23.8041 15.6505 23.5111V23.5109V20.1766C15.6505 18.9635 14.7219 17.8884 13.4671 17.8884H10.581V17.8884L10.5756 17.8884C9.32721 17.8974 8.40719 18.9691 8.40722 20.1766V23.5006H8.38797C8.38797 23.8725 8.11921 24.0823 7.89696 24.0823H5.97291C4.51802 24.0823 3.25 22.8003 3.25 21.1056V11.6637C3.25636 11.0653 3.51914 10.519 3.93804 10.175L3.95423 10.1613L10.5022 4.46598L10.5038 4.46457C11.3751 3.71731 12.597 3.71754 13.4682 4.46527L13.469 4.46598L20.0475 10.1525L20.0597 10.1628C20.4783 10.5093 20.7412 11.0559 20.75 11.6549V15.9865H22.25V11.6497H22.2501L22.2499 11.6402C22.2371 10.6244 21.7942 9.65477 21.0228 9.01284L14.4482 3.32969L14.4465 3.32821Z" fill="#AD64F1"/>
<path d="M17.2379 28.9772L25.1816 28.9772" stroke="#AD64F1" stroke-width="1.5" stroke-linecap="round" stroke-linejoin="round"/>
<path d="M19.627 31.555L17.2372 28.9767L19.627 26.3984" stroke="#AD64F1" stroke-width="1.5" stroke-linecap="round" stroke-linejoin="round"/>
<path d="M26.7642 22.6989L18.8205 22.6989" stroke="#AD64F1" stroke-width="1.5" stroke-linecap="round" stroke-linejoin="round"/>
<path d="M24.3749 20.1211L26.7646 22.6994L24.3749 25.2776" stroke="#AD64F1" stroke-width="1.5" stroke-linecap="round" stroke-linejoin="round"/>
</svg>
