<svg width="24" height="24" viewBox="0 0 24 24" fill="none" xmlns="http://www.w3.org/2000/svg">
<g clip-path="url(#clip0_149_13053)">
<path d="M23.7188 18.0938H0.28125V14.3438H23.7188V18.0938ZM1.21875 17.1562H22.7812V15.2812H1.21875V17.1562Z" fill="#AD64F1"/>
<path d="M3.09375 17.625H2.15625V23.25H3.09375V17.625Z" fill="#AD64F1"/>
<path d="M21.8438 17.625H20.9062V23.25H21.8438V17.625Z" fill="#AD64F1"/>
<path d="M20.9062 15.2812H16.2188V10.5938H20.9062V15.2812ZM17.1562 14.3438H19.9688V11.5312H17.1562V14.3438Z" fill="#AD64F1"/>
<path d="M18.5625 6.84375C16.7532 6.84375 15.2812 5.37178 15.2812 3.5625C15.2812 1.75322 16.7532 0.28125 18.5625 0.28125C20.3718 0.28125 21.8438 1.75322 21.8438 3.5625C21.8438 5.37178 20.3718 6.84375 18.5625 6.84375ZM18.5625 1.21875C17.2702 1.21875 16.2188 2.27016 16.2188 3.5625C16.2188 4.85484 17.2702 5.90625 18.5625 5.90625C19.8548 5.90625 20.9062 4.85484 20.9062 3.5625C20.9062 2.27016 19.8548 1.21875 18.5625 1.21875Z" fill="#AD64F1"/>
<path d="M19.0312 4.03125H17.1562V3.09375H18.0938V2.15625H19.0312V4.03125Z" fill="#AD64F1"/>
<path d="M18.0938 9.1875H17.1562V10.125H18.0938V9.1875Z" fill="#AD64F1"/>
<path d="M19.9688 8.25H19.0312V10.125H19.9688V8.25Z" fill="#AD64F1"/>
<path d="M10.125 15.2812H6.375V9.65625H10.125V15.2812ZM7.3125 14.3438H9.1875V10.5938H7.3125V14.3438Z" fill="#AD64F1"/>
<path d="M12.9375 12.4688H9.1875V10.5938H7.3125V12.4688H3.5625C2.78709 12.4688 2.15625 11.8379 2.15625 11.0625V5.4375C2.15625 4.66209 2.78709 4.03125 3.5625 4.03125H12.9375C13.7129 4.03125 14.3438 4.66209 14.3438 5.4375V11.0625C14.3438 11.8379 13.7129 12.4688 12.9375 12.4688ZM10.125 11.5312H12.9375C13.196 11.5312 13.4062 11.321 13.4062 11.0625V5.4375C13.4062 5.17903 13.196 4.96875 12.9375 4.96875H3.5625C3.30403 4.96875 3.09375 5.17903 3.09375 5.4375V11.0625C3.09375 11.321 3.30403 11.5312 3.5625 11.5312H6.375V9.65625H10.125V11.5312Z" fill="#AD64F1"/>
<path d="M9.67969 7.78125H6.86719V8.71875H9.67969V7.78125Z" fill="#AD64F1"/>
</g>
<defs>
<clipPath id="clip0_149_13053">
<rect width="24" height="24" fill="white"/>
</clipPath>
</defs>
</svg>
