<svg width="29" height="30" viewBox="0 0 29 30" fill="none" xmlns="http://www.w3.org/2000/svg">
<path fill-rule="evenodd" clip-rule="evenodd" d="M14.4236 2.09754C12.9979 0.967486 10.9732 0.967486 9.54754 2.09754L9.54753 2.09753L9.54402 2.10035L3.00022 7.35152C2.22214 7.94535 1.7597 8.86207 1.75004 9.83995H1.75V9.84736V18.5618C1.75 20.882 3.64779 22.75 5.97291 22.75H7.89696C8.91806 22.75 9.76972 21.9823 9.87666 20.984C9.89655 20.9166 9.90722 20.8452 9.90722 20.7714V17.7047V17.7047C9.90721 17.3446 10.2023 17.0392 10.584 17.0356H13.4671C13.8517 17.0356 14.1505 17.3422 14.1505 17.7047V20.7807V20.7809C14.1503 21.8286 14.9705 22.6783 16 22.746V21.2326C15.794 21.176 15.6504 20.9903 15.6505 20.7811V20.7809V17.7047C15.6505 16.4996 14.6658 15.5356 13.4671 15.5356H10.581V15.5356L10.576 15.5356C9.38293 15.5435 8.4072 16.5054 8.40722 17.7047V17.7047V20.7714H8.38797C8.38797 21.0286 8.17527 21.25 7.89696 21.25H5.97291C4.46196 21.25 3.25 20.0394 3.25 18.5618V9.85141C3.2561 9.33885 3.49977 8.85495 3.91498 8.54033L3.93142 8.5275L10.4809 3.27176C11.3604 2.57586 12.6118 2.57608 13.491 3.27242L13.4918 3.27306L20.0703 8.5194L20.0828 8.52909C20.4975 8.84579 20.7415 9.33001 20.75 9.84345V15H22.25V9.83784H22.2501L22.2499 9.82755C22.2365 8.85151 21.7749 7.9372 20.9999 7.34209L14.4253 2.09893L14.4253 2.09893L14.4236 2.09754Z" fill="#AD64F1"/>
<path d="M17.2379 25.8231L25.1816 25.8231" stroke="#AD64F1" stroke-width="1.5" stroke-linecap="round" stroke-linejoin="round"/>
<path d="M19.627 28.2017L17.2372 25.823L19.627 23.4443" stroke="#AD64F1" stroke-width="1.5" stroke-linecap="round" stroke-linejoin="round"/>
<path d="M26.7646 20.0321L18.8209 20.0321" stroke="#AD64F1" stroke-width="1.5" stroke-linecap="round" stroke-linejoin="round"/>
<path d="M24.3749 17.6533L26.7646 20.032L24.3749 22.4107" stroke="#AD64F1" stroke-width="1.5" stroke-linecap="round" stroke-linejoin="round"/>
</svg>
