<svg width="24" height="25" viewBox="0 0 24 25" fill="none" xmlns="http://www.w3.org/2000/svg">
<g clip-path="url(#clip0_149_18665)">
<path d="M14.7542 6.35044V6.50397C14.7542 6.95615 15.1209 7.32277 15.5731 7.32277C16.025 7.32277 16.3916 6.95615 16.3916 6.50397V6.21401C16.3916 6.14942 16.3835 6.08678 16.3692 6.0265C16.3694 6.0265 16.3696 6.0265 16.3698 6.0265C16.3698 6.0265 16.3698 6.02619 16.3698 6.02599C16.3682 6.01903 16.3657 6.01238 16.3638 6.00552C16.3594 5.98873 16.3548 5.97195 16.3494 5.95557C16.3458 5.94513 16.342 5.9351 16.338 5.92487C16.3326 5.91023 16.3271 5.8958 16.3206 5.88157C16.3154 5.8697 16.3097 5.85824 16.3038 5.84677C16.298 5.8351 16.2921 5.82333 16.2856 5.81197C16.2782 5.79908 16.2707 5.78669 16.2626 5.77431C16.2565 5.76479 16.2504 5.75527 16.244 5.74596C16.235 5.73316 16.2255 5.72088 16.216 5.7087C16.2095 5.70021 16.2028 5.69181 16.1959 5.68373C16.1858 5.67196 16.1755 5.6606 16.1648 5.64954C16.1571 5.64146 16.1495 5.63358 16.1414 5.6259C16.1311 5.61577 16.1202 5.60604 16.1091 5.59652C16.0998 5.58854 16.0906 5.58066 16.0813 5.57309C16.0707 5.5648 16.0601 5.55691 16.0493 5.54924C16.0383 5.54136 16.0273 5.53368 16.0159 5.52631C16.0057 5.51976 15.9956 5.51362 15.9851 5.50748C15.9725 5.50011 15.9597 5.49295 15.9467 5.48629C15.9366 5.48107 15.9264 5.47626 15.9159 5.47145C15.9023 5.46521 15.8888 5.45907 15.875 5.45364C15.864 5.44924 15.8529 5.44535 15.8417 5.44146C15.8282 5.43675 15.8146 5.43225 15.8009 5.42826C15.7883 5.42458 15.7755 5.4215 15.7627 5.41843C15.7501 5.41547 15.7375 5.4124 15.7246 5.41004C15.7097 5.40728 15.6947 5.40513 15.6796 5.40318C15.6684 5.40175 15.6572 5.40022 15.6458 5.39919C15.6292 5.39766 15.6127 5.39704 15.5959 5.39663C15.5883 5.39643 15.5809 5.39551 15.5731 5.39551C15.5697 5.39551 15.5665 5.39592 15.563 5.39602C15.5479 5.39622 15.5326 5.39725 15.5175 5.39827C15.5041 5.39919 15.4907 5.40001 15.4776 5.40144C15.4663 5.40288 15.4548 5.40482 15.4435 5.40666C15.4265 5.40932 15.4097 5.41219 15.3931 5.41588C15.3905 5.41649 15.3877 5.41669 15.3849 5.41741C14.5489 5.61495 13.6767 5.68925 12.8562 5.68905C12.8098 5.68905 12.7638 5.68854 12.7178 5.68813V6.35064H14.7542V6.35044Z" fill="#AD64F1"/>
<path d="M6.67008 4.60578C7.94193 4.60578 8.97297 3.57474 8.97297 2.30289C8.97297 1.03104 7.94193 0 6.67008 0C5.39823 0 4.36719 1.03104 4.36719 2.30289C4.36719 3.57474 5.39823 4.60578 6.67008 4.60578Z" fill="#AD64F1"/>
<path d="M20.8214 8.54026H14.9533V7.98828H14.271V8.54026H13.2275V15.4768H23.1356V8.54026H21.5038V7.98828H20.8215L20.8214 8.54026ZM22.7261 15.0674H13.6368V8.94976H22.7261V15.0674Z" fill="#AD64F1"/>
<path d="M16.7028 10.897H17.1684V10.6545H16.7028V10.4447H17.2479V10.1865H16.3301V11.388H16.7028V10.897Z" fill="#AD64F1"/>
<path d="M17.7001 11.3437C17.7889 11.3869 17.901 11.4085 18.0366 11.4085C18.1699 11.4085 18.2813 11.3835 18.3706 11.3335C18.46 11.2836 18.5281 11.2135 18.5755 11.1236C18.6227 11.0337 18.6465 10.9186 18.6465 10.7782C18.6465 10.5847 18.5923 10.4344 18.4841 10.327C18.3757 10.2198 18.2218 10.166 18.0219 10.166C17.8268 10.166 17.6746 10.2207 17.5653 10.33C17.4561 10.4393 17.4014 10.592 17.4014 10.7881C17.4014 10.9285 17.429 11.0454 17.4842 11.1389C17.5393 11.2322 17.6113 11.3005 17.7001 11.3437ZM17.8409 10.5266C17.886 10.4736 17.9462 10.4471 18.021 10.4471C18.0992 10.4471 18.1611 10.4732 18.2067 10.5254C18.2522 10.5776 18.275 10.6602 18.275 10.7733C18.275 10.9076 18.2532 11.0008 18.2094 11.0527C18.1658 11.1046 18.1041 11.1306 18.0243 11.1306C17.9467 11.1306 17.8854 11.104 17.8403 11.0511C17.7951 10.9981 17.7726 10.911 17.7726 10.7896C17.7727 10.6673 17.7954 10.5795 17.8409 10.5266Z" fill="#AD64F1"/>
<path d="M19.2237 10.9001H19.2564C19.2902 10.9001 19.3206 10.9094 19.3474 10.928C19.3669 10.9422 19.3894 10.973 19.4145 11.0206L19.613 11.3877H20.0324L19.8527 11.0396C19.8439 11.0221 19.8265 10.9972 19.8005 10.965C19.7747 10.9328 19.755 10.9117 19.7411 10.9019C19.721 10.887 19.6887 10.8724 19.6446 10.8575C19.6998 10.8449 19.7434 10.8292 19.7749 10.81C19.8247 10.78 19.8639 10.7408 19.8923 10.6925C19.9207 10.6441 19.9349 10.5866 19.9349 10.52C19.9349 10.4435 19.9163 10.3786 19.8791 10.3254C19.8422 10.2721 19.7931 10.2357 19.7325 10.216C19.6717 10.1963 19.584 10.1865 19.4693 10.1865H18.8506V11.3879H19.2236V10.9001H19.2237ZM19.2237 10.4289H19.3866C19.4544 10.4289 19.5005 10.4393 19.5252 10.46C19.5497 10.4808 19.5621 10.5106 19.5621 10.5494C19.5621 10.5756 19.5543 10.5987 19.5387 10.619C19.5231 10.6392 19.5031 10.6518 19.4785 10.6567C19.4297 10.6677 19.3969 10.6731 19.3801 10.6731H19.2237V10.4289Z" fill="#AD64F1"/>
<path d="M23.9999 7.78353V6.55532H16.5939C16.5668 7.09584 16.1199 7.52755 15.5727 7.52755C15.026 7.52755 14.579 7.09573 14.552 6.55532H12.5127V5.53223H11.2845V6.55532H10.1592V7.78353H11.2846V7.98833V23.9549H12.5128V7.98844V7.78363L23.9999 7.78353Z" fill="#AD64F1"/>
<path d="M2.18109 16.6986L3.90181 15.533V23.0107C3.90181 23.7098 4.46853 24.2761 5.16717 24.2761C5.86602 24.2761 6.43274 23.7098 6.43274 23.0107V13.7714H6.90713V23.0107C6.90713 23.7098 7.47364 24.2761 8.17229 24.2761C8.87114 24.2761 9.43786 23.7098 9.43786 23.0107V6.98016C9.592 7.01107 9.76487 7.04341 9.95442 7.07545V6.5553V6.3506H10.1593H11.0799V5.58226C10.7372 5.54224 10.4244 5.49516 10.1532 5.44797C9.80663 5.38779 9.527 5.32751 9.33663 5.28329C9.24165 5.26098 9.16878 5.24286 9.12129 5.23048C9.09733 5.22434 9.07983 5.21973 9.06878 5.21676C9.05783 5.21379 9.05619 5.21338 9.05619 5.21338C8.94023 5.18084 8.82334 5.17562 8.71158 5.19271C8.69018 5.19087 8.66879 5.18943 8.64679 5.18943H4.82471C4.82409 5.18933 4.82348 5.18923 4.82287 5.18913C4.79216 5.18534 4.74334 5.18104 4.67835 5.18104C4.38726 5.17285 3.71779 5.29404 3.12262 5.91653C2.60165 6.45633 2.14875 7.30799 1.8635 8.66905C1.82215 8.86689 1.78418 9.07528 1.74999 9.29523C1.74999 9.29574 1.74979 9.29625 1.74979 9.29677V9.29656C1.62461 10.1071 1.55164 11.0767 1.55164 12.2457C1.55164 12.8449 1.57088 13.4968 1.61243 14.2066C1.63802 14.6416 1.99881 14.9774 2.42919 14.9774C2.44536 14.9774 2.46153 14.977 2.47781 14.976C2.92917 14.9496 3.27358 14.562 3.24728 14.1106C3.20706 13.4299 3.18914 12.8099 3.18935 12.2456C3.18914 11.1465 3.25813 10.2592 3.36764 9.54947C3.36785 9.54845 3.36816 9.54742 3.36826 9.5463C3.4004 9.33719 3.43632 9.14539 3.4746 8.96679C3.59916 8.38574 3.75136 7.96027 3.90202 7.65158V10.8356L3.41851 11.1631C3.41258 11.2877 3.40787 11.4148 3.40408 11.5438L3.85852 11.2359L5.69499 13.9476L2.26328 16.2721L0.426598 13.5603L1.35594 12.9308C1.35318 12.8072 1.35093 12.685 1.3498 12.5641L0 13.4784L2.18109 16.6986ZM6.66999 12.6286L5.69766 11.4004L6.25782 7.2735C6.39057 7.32324 6.53018 7.34924 6.66978 7.34914H6.66999C6.66999 7.34914 6.6704 7.34914 6.6706 7.34914C6.81011 7.34914 6.94971 7.32314 7.08215 7.2734L7.64211 11.4004L6.66999 12.6286ZM6.28095 6.02697H6.66999H7.05882L7.25328 6.7946L7.2237 6.84127C7.06353 6.97494 6.86722 7.04188 6.66978 7.04208C6.47245 7.04188 6.27655 6.97504 6.11637 6.84178L6.08649 6.7946L6.28095 6.02697Z" fill="#AD64F1"/>
<path d="M3.63056 12.2197L3.46289 12.3369L4.58975 13.9483L4.75742 13.831L3.63056 12.2197Z" fill="#AD64F1"/>
<path d="M4.04001 14.318L3.41895 13.4287C3.42396 13.5549 3.42969 13.6824 3.43634 13.8113L3.87215 14.4352L4.04001 14.318Z" fill="#AD64F1"/>
<path d="M15.0699 12.992H15.1183C15.1685 12.992 15.2133 13.0057 15.2529 13.0331C15.2821 13.0542 15.315 13.0997 15.3523 13.1701L15.6457 13.7129H16.2661L16.0002 13.1982C15.9874 13.1724 15.9616 13.1357 15.9232 13.088C15.8848 13.0402 15.8557 13.0092 15.8355 12.9945C15.8055 12.9727 15.7579 12.9508 15.6927 12.9289C15.7743 12.9103 15.8385 12.887 15.8852 12.8587C15.9588 12.8142 16.0168 12.7562 16.0587 12.6848C16.1007 12.6133 16.1217 12.5283 16.1217 12.4298C16.1217 12.3167 16.0942 12.2206 16.0393 12.1418C15.9843 12.063 15.9122 12.0092 15.8224 11.9801C15.7328 11.9511 15.6031 11.9365 15.4334 11.9365H14.5186V13.7129H15.0699V12.992ZM15.0699 12.2952H15.311C15.4112 12.2952 15.4794 12.3105 15.5159 12.3411C15.5521 12.3719 15.5702 12.4158 15.5702 12.4732C15.5702 12.512 15.5588 12.5464 15.5358 12.5762C15.5126 12.6062 15.483 12.6248 15.4467 12.632C15.3747 12.6482 15.3263 12.6563 15.3013 12.6563H15.0698L15.0699 12.2952Z" fill="#AD64F1"/>
<path d="M16.9906 12.9604H17.8448V12.5981H16.9906V12.3157H17.9113V11.9365H16.4404V13.7129H17.9381V13.3107H16.9906V12.9604Z" fill="#AD64F1"/>
<path d="M18.2373 13.7129H18.7535V12.7375L19.4187 13.7129H19.9362V11.9365H19.4187V12.9193L18.7498 11.9365H18.2373V13.7129Z" fill="#AD64F1"/>
<path d="M20.7355 13.7129H21.2844V12.3751H21.8444V11.9365H20.1758V12.3751H20.7355V13.7129Z" fill="#AD64F1"/>
</g>
<defs>
<clipPath id="clip0_149_18665">
<rect width="24" height="24.2758" fill="white"/>
</clipPath>
</defs>
</svg>
