<svg width="24" height="17" viewBox="0 0 24 17" fill="none" xmlns="http://www.w3.org/2000/svg">
<g clip-path="url(#clip0_149_18681)">
<path d="M5.7052 5.33253C5.69298 5.3316 5.68064 5.33067 5.66811 5.33067H3.35185C3.3516 5.33061 3.35135 5.33054 3.3511 5.33054V5.33042C3.33243 5.32813 3.30273 5.32546 3.26341 5.32546C3.08717 5.32062 2.68135 5.39398 2.32093 5.77121C2.0051 6.09821 1.73069 6.61429 1.55779 7.43894C1.53268 7.55906 1.50961 7.68551 1.48896 7.81909C1.4889 7.81927 1.4889 7.81946 1.4889 7.81965C1.41318 8.31054 1.36896 8.89788 1.36896 9.60588C1.36896 9.96897 1.38062 10.3639 1.4058 10.794C1.4213 11.0576 1.6399 11.261 1.90067 11.261C1.91046 11.261 1.92026 11.2608 1.93012 11.2602C2.2036 11.2442 2.41228 11.0093 2.39628 10.7358C2.37203 10.3234 2.36105 9.9477 2.36118 9.60582C2.36105 8.93973 2.40298 8.40201 2.46927 7.97195C2.46933 7.97145 2.46945 7.9709 2.46958 7.9704C2.48905 7.84371 2.51075 7.72737 2.53401 7.61916C2.60948 7.2671 2.70163 7.00931 2.79298 6.82228V8.75159L2.50009 8.94997C2.49643 9.02544 2.49364 9.10246 2.49134 9.18059L2.76675 8.99406L3.87946 10.637L1.80008 12.0454L0.687246 10.4024L1.25033 10.0211C1.24865 9.94622 1.24729 9.87211 1.24655 9.79893L0.428711 10.3528L1.75022 12.3039L2.79285 11.5977V16.1284C2.79285 16.552 3.13622 16.8951 3.55953 16.8951C3.98296 16.8951 4.32633 16.552 4.32633 16.1284V10.5304H4.61376V16.1284C4.61376 16.552 4.95713 16.8951 5.38043 16.8951C5.80386 16.8951 6.14723 16.552 6.14723 16.1284V6.26503C6.35647 6.22974 6.66963 6.17567 7.05009 6.10621V14.202H9.22056V16.5647C9.17194 16.3482 9.01244 15.9679 8.50127 15.6139L8.43057 15.716C8.97257 16.0934 9.08605 16.4843 9.1103 16.6521H9.01108C8.96903 16.5442 8.78182 16.1588 8.26487 16.1096L8.25334 16.2332C8.51497 16.2578 8.67379 16.3785 8.77239 16.4943C8.82138 16.5522 8.85443 16.609 8.87477 16.6508C8.87502 16.6512 8.87515 16.6516 8.87539 16.652H8.44514V16.9672H11.0083V16.652H10.5398C10.5953 16.5602 10.7014 16.4356 10.9049 16.318L10.8431 16.2107C10.5749 16.3643 10.4531 16.5388 10.399 16.652H10.3217C10.3425 16.4582 10.4334 16.0562 10.8221 15.7112L10.7398 15.6185C10.484 15.846 10.3476 16.0962 10.2747 16.3056V14.202H17.9644V16.4547C17.8896 16.2325 17.7092 15.9137 17.276 15.6139L17.2053 15.7159C17.7473 16.0934 17.8609 16.4842 17.8852 16.652H17.7859C17.7438 16.5441 17.5566 16.1587 17.0396 16.1096L17.0283 16.2332C17.2898 16.2577 17.4486 16.3785 17.5472 16.4942C17.5962 16.5521 17.6291 16.609 17.6497 16.6507C17.6499 16.6512 17.6501 16.6515 17.6503 16.6519H17.22V16.9671H19.7831V16.6519H19.3147C19.3702 16.5601 19.4762 16.4355 19.6797 16.318L19.618 16.2106C19.3498 16.3642 19.2279 16.5387 19.1739 16.6519H19.0965C19.1174 16.4581 19.2083 16.0562 19.597 15.7111L19.5146 15.6185C19.217 15.8831 19.0808 16.1786 19.0185 16.4046V14.2019H21.189V5.27194H10.4794C10.4613 5.41767 10.3924 5.54759 10.291 5.64396H20.8173V13.8298H7.42235V5.64408H9.43811C9.3191 5.53103 9.2445 5.37172 9.2445 5.19504C9.2445 5.19504 9.29219 5.17514 9.36853 5.14587V5.19511C9.36853 5.46908 9.59066 5.69121 9.86464 5.69121C10.1385 5.69121 10.3606 5.46908 10.3606 5.19511V5.01936C10.3606 4.98017 10.3555 4.94228 10.347 4.90569C10.3472 4.90575 10.3473 4.90575 10.3475 4.90575C10.3474 4.90563 10.3474 4.90544 10.3474 4.90532C10.3461 4.89986 10.3442 4.89471 10.3428 4.88932C10.3405 4.88095 10.3382 4.87251 10.3356 4.86426C10.3329 4.85633 10.3299 4.84864 10.3269 4.84088C10.3242 4.83363 10.3214 4.82644 10.3182 4.81937C10.3144 4.81081 10.3103 4.80244 10.3061 4.79419C10.3032 4.78842 10.3003 4.78265 10.2971 4.77707C10.292 4.76808 10.2867 4.75946 10.2811 4.7509C10.2781 4.74619 10.2752 4.74154 10.272 4.73695C10.2659 4.72821 10.2596 4.71983 10.253 4.71159C10.2496 4.70737 10.2464 4.70315 10.2429 4.699C10.2362 4.69112 10.2292 4.68356 10.222 4.67611C10.2181 4.6719 10.214 4.66768 10.2098 4.66365C10.2029 4.65701 10.1958 4.65063 10.1886 4.64436C10.1835 4.63996 10.1783 4.63562 10.1731 4.6314C10.1663 4.62607 10.1594 4.62098 10.1525 4.61602C10.1462 4.6115 10.1399 4.60709 10.1333 4.60294C10.1269 4.59878 10.1204 4.59488 10.1137 4.59103C10.1064 4.58675 10.0989 4.58254 10.0913 4.57863C10.085 4.57534 10.0786 4.57237 10.0721 4.56939C10.064 4.56567 10.0559 4.56207 10.0476 4.55879C10.0409 4.55606 10.0341 4.5537 10.0272 4.55134C10.0191 4.54849 10.0109 4.54576 10.0027 4.54334C9.99493 4.54111 9.98717 4.53925 9.97936 4.53733C9.97179 4.53553 9.96417 4.53373 9.95642 4.53224C9.94742 4.53057 9.93825 4.52927 9.92919 4.52809C9.92237 4.52716 9.91549 4.52623 9.9086 4.52561C9.89868 4.52474 9.88863 4.52437 9.87853 4.52412C9.87388 4.524 9.86935 4.52344 9.86464 4.52344C9.86259 4.52344 9.86054 4.52369 9.85843 4.52375C9.84938 4.52387 9.84014 4.52449 9.83096 4.52511C9.82284 4.52567 9.81471 4.52617 9.80671 4.5271C9.79983 4.5279 9.79301 4.52914 9.78625 4.5302C9.77589 4.53181 9.76566 4.53355 9.75549 4.53584C9.75394 4.53621 9.7522 4.53634 9.75059 4.53677C8.77834 4.76641 7.7643 4.96603 6.99502 5.10779C6.61035 5.17861 6.28676 5.23511 6.05973 5.27368C5.84076 5.31082 5.71444 5.3311 5.7052 5.33253ZM4.23442 5.83819H4.47014H4.70573L4.82355 6.30329L4.80563 6.33157C4.70858 6.41256 4.58964 6.45311 4.47001 6.45324C4.35045 6.45311 4.23176 6.41262 4.1347 6.33182L4.1166 6.30329L4.23442 5.83819ZM4.47014 9.83806L3.88101 9.0939L4.22041 6.59345C4.30084 6.62359 4.38543 6.63934 4.47001 6.63928H4.47014C4.47014 6.63928 4.47038 6.63928 4.47051 6.63928C4.55503 6.63928 4.63962 6.62353 4.71986 6.59339L5.05927 9.0939L4.47014 9.83806Z" fill="#AD64F1"/>
<path d="M9.24805 7.3623V8.64468H10.2628V8.32891H9.64431V7.3623H9.24805Z" fill="#AD64F1"/>
<path d="M10.7815 8.43303H11.2314L11.2956 8.64475H11.7105L11.2286 7.3623H10.7965L10.3145 8.64475H10.7191L10.7815 8.43303ZM11.0077 7.69476L11.1492 8.15577H10.8676L11.0077 7.69476Z" fill="#AD64F1"/>
<path d="M12.2116 7.94064L12.6918 8.64468H13.0652V7.3623H12.6918V8.07174L12.2089 7.3623H11.8389V8.64468H12.2116V7.94064Z" fill="#AD64F1"/>
<path d="M14.1588 8.60977C14.2223 8.5929 14.2818 8.55886 14.3372 8.50788C14.3926 8.45684 14.4359 8.39353 14.4672 8.31806C14.4983 8.24253 14.5139 8.13623 14.5139 7.99918C14.5139 7.91175 14.5034 7.82889 14.4824 7.75076C14.4615 7.67262 14.4275 7.60403 14.3809 7.54525C14.3343 7.48627 14.2752 7.44106 14.2038 7.40962C14.1324 7.37806 14.0386 7.3623 13.9226 7.3623H13.334V8.64475H13.9226C13.9932 8.64475 14.0719 8.63315 14.1588 8.60977ZM13.7301 8.35347V7.65284H13.829C13.9315 7.65284 14.0052 7.67783 14.0494 7.72806C14.0938 7.77823 14.1159 7.87119 14.1159 8.007C14.1159 8.10963 14.106 8.18399 14.0863 8.22963C14.0664 8.27546 14.0389 8.30752 14.0039 8.32593C13.9689 8.34429 13.91 8.35347 13.8273 8.35347H13.7301Z" fill="#AD64F1"/>
<path d="M15.7193 8.12073H16.2161V7.86176H15.7193V7.63783H16.301V7.3623H15.3213V8.64468H15.7193V8.12073Z" fill="#AD64F1"/>
<path d="M16.7837 8.59771C16.8784 8.64379 16.9981 8.66686 17.1427 8.66686C17.285 8.66686 17.4039 8.64019 17.4993 8.5868C17.5945 8.53347 17.6675 8.4588 17.7179 8.36287C17.7683 8.26699 17.7936 8.14414 17.7936 7.9942C17.7936 7.78775 17.7358 7.62726 17.6203 7.51266C17.5049 7.39806 17.3404 7.34082 17.127 7.34082C16.9188 7.34082 16.7563 7.39905 16.6397 7.5157C16.5232 7.63241 16.4648 7.79538 16.4648 8.00468C16.4648 8.15462 16.4944 8.2794 16.5533 8.37911C16.6121 8.47877 16.6888 8.55164 16.7837 8.59771ZM16.9337 7.72561C16.9821 7.66906 17.0462 7.64072 17.1261 7.64072C17.2094 7.64072 17.2755 7.66862 17.3242 7.72431C17.3729 7.78 17.3973 7.86818 17.3973 7.98899C17.3973 8.13249 17.3739 8.23189 17.3273 8.28727C17.2806 8.34271 17.2148 8.37037 17.1296 8.37037C17.0467 8.37037 16.9813 8.34215 16.9332 8.28554C16.885 8.22898 16.861 8.13596 16.861 8.00654C16.861 7.87575 16.8853 7.78217 16.9337 7.72561Z" fill="#AD64F1"/>
<path d="M18.4106 8.12427H18.4455C18.4817 8.12427 18.514 8.13419 18.5427 8.15403C18.5637 8.16916 18.5876 8.20209 18.6144 8.25288L18.8261 8.64475H19.2739L19.0821 8.27316C19.0728 8.25443 19.0542 8.22789 19.0265 8.19347C18.9989 8.15906 18.9777 8.13654 18.9632 8.12606C18.9416 8.11037 18.9072 8.09456 18.8601 8.07875C18.919 8.06535 18.9653 8.04842 18.9993 8.02808C19.0523 7.99596 19.094 7.95416 19.1244 7.90257C19.1548 7.85097 19.1699 7.78958 19.1699 7.71839C19.1699 7.63678 19.1501 7.56751 19.1105 7.51064C19.0707 7.45384 19.0185 7.41489 18.9539 7.39387C18.8892 7.37285 18.7956 7.3623 18.673 7.3623H18.0127V8.64475H18.4107V8.12427H18.4106ZM18.4106 7.62127H18.5846C18.657 7.62127 18.7063 7.63237 18.7325 7.65451C18.7587 7.67665 18.7719 7.70846 18.7719 7.74989C18.7719 7.7778 18.7636 7.80266 18.747 7.82418C18.7303 7.84582 18.709 7.8591 18.6827 7.86437C18.6307 7.87603 18.5957 7.88192 18.5777 7.88192H18.4107V7.62127H18.4106Z" fill="#AD64F1"/>
<path d="M10.9053 10.5561C10.752 10.478 10.4983 10.4008 10.1441 10.3245C10.0009 10.2947 9.91024 10.2625 9.87204 10.2278C9.83266 10.1945 9.81307 10.1569 9.81307 10.1151C9.81307 10.0579 9.83694 10.0093 9.88463 9.96935C9.93238 9.92935 10.0033 9.90938 10.0976 9.90938C10.2121 9.90938 10.3018 9.93623 10.3668 9.98987C10.4318 10.0436 10.4744 10.1295 10.4948 10.2475L11.2587 10.2028C11.2252 9.93077 11.1206 9.73252 10.9447 9.60787C10.7687 9.48322 10.5131 9.4209 10.178 9.4209C9.90491 9.4209 9.68991 9.45519 9.53307 9.52378C9.37624 9.59237 9.25873 9.68657 9.18059 9.80644C9.10245 9.92631 9.06345 10.0536 9.06345 10.1884C9.06345 10.3936 9.13972 10.5623 9.29246 10.6947C9.44384 10.8271 9.69735 10.9333 10.0527 11.0132C10.2698 11.0609 10.4082 11.1116 10.4678 11.1652C10.5274 11.2189 10.5573 11.2798 10.5573 11.3477C10.5573 11.4192 10.5259 11.4822 10.4633 11.5364C10.4006 11.5908 10.3115 11.6179 10.1958 11.6179C10.0408 11.6179 9.92147 11.5648 9.838 11.4587C9.78665 11.3931 9.75273 11.2976 9.73598 11.1725L8.96484 11.2207C8.98748 11.4855 9.08478 11.7037 9.25649 11.8756C9.42827 12.0474 9.7371 12.1332 10.1833 12.1332C10.4373 12.1332 10.6478 12.0965 10.8148 12.0232C10.9817 11.9498 11.1118 11.8422 11.2048 11.7002C11.2979 11.5583 11.3444 11.4032 11.3444 11.235C11.3444 11.0919 11.3095 10.9625 11.2397 10.8468C11.1701 10.7312 11.0585 10.6343 10.9053 10.5561Z" fill="#AD64F1"/>
<path d="M12.4749 9.46582L11.4893 12.0886H12.3168L12.4446 11.6557H13.3647L13.4959 12.0886H14.3446L13.359 9.46582H12.4749ZM12.6204 11.0885L12.907 10.1457L13.1965 11.0885H12.6204Z" fill="#AD64F1"/>
<path d="M16.6778 11.4428H15.4129V9.46582H14.6025V12.0886H16.6778V11.4428Z" fill="#AD64F1"/>
<path d="M17.8571 10.9776H19.1185V10.4427H17.8571V10.0258H19.2168V9.46582H17.0449V12.0886H19.2562V11.4947H17.8571V10.9776Z" fill="#AD64F1"/>
<path d="M23.9997 13.0391H21.8584V13.4732H23.9997V13.0391Z" fill="#AD64F1"/>
<path d="M2.14127 13.0391H0V13.4732H2.14127V13.0391Z" fill="#AD64F1"/>
<path d="M4.46952 4.97713C5.24013 4.97713 5.86483 4.35243 5.86483 3.58183C5.86483 2.81122 5.24013 2.18652 4.46952 2.18652C3.69892 2.18652 3.07422 2.81122 3.07422 3.58183C3.07422 4.35243 3.69892 4.97713 4.46952 4.97713Z" fill="#AD64F1"/>
<path d="M2.62807 9.59004L2.52637 9.66113L3.20885 10.6375L3.31056 10.5664L2.62807 9.59004Z" fill="#AD64F1"/>
<path d="M2.8763 10.8611L2.5 10.3223C2.50304 10.3987 2.50651 10.4759 2.51054 10.554L2.7746 10.9321L2.8763 10.8611Z" fill="#AD64F1"/>
<path d="M13.7161 0.33692C13.6612 0.33692 13.6077 0.342501 13.5559 0.353043C13.6297 0.489411 13.6716 0.645499 13.6716 0.811448C13.6716 1.08493 13.5573 1.33125 13.3745 1.50674C13.4798 1.35221 13.5414 1.16561 13.5414 0.964497C13.5414 0.431801 13.1096 0 12.5769 0C12.3176 0 12.0827 0.102881 11.9093 0.269387C11.7787 0.39484 11.6839 0.556572 11.6401 0.738458C11.6153 0.735109 11.5902 0.732814 11.5644 0.732814C11.2516 0.732814 10.998 0.986512 10.998 1.29937C10.998 1.61223 11.2516 1.8658 11.5644 1.8658C11.7181 1.8658 11.8573 1.80441 11.9593 1.70506C12.1266 1.84472 12.3419 1.92893 12.5769 1.92893C12.8043 1.92893 13.0129 1.8498 13.1777 1.71815C13.3195 1.84856 13.5081 1.92893 13.716 1.92893C14.1557 1.92893 14.5121 1.57254 14.5121 1.13286C14.5121 0.693188 14.1557 0.33692 13.7161 0.33692Z" fill="#AD64F1"/>
<path d="M19.8779 3.51411C20.0255 3.68421 20.2426 3.79224 20.4855 3.79224C20.93 3.79224 21.2902 3.43188 21.2902 2.98743C21.2902 2.54298 20.93 2.18262 20.4855 2.18262C20.48 2.18262 20.4749 2.1833 20.4695 2.18342C20.4748 2.23403 20.4777 2.28531 20.4777 2.33734C20.4777 2.82123 20.2413 3.24962 19.8779 3.51411Z" fill="#AD64F1"/>
<path d="M16.8636 3.83875C17.0135 3.83875 17.1494 3.78077 17.2515 3.68657C17.3838 3.75373 17.533 3.79237 17.6915 3.79237C17.8909 3.79237 18.076 3.73227 18.2304 3.6297C18.4305 3.73339 18.6576 3.79237 18.8986 3.79237C18.9193 3.79237 18.9399 3.79168 18.9605 3.79082C19.7352 3.75838 20.3535 3.12026 20.3535 2.33753C20.3535 1.55492 19.7352 0.916858 18.9605 0.884363C18.9399 0.883495 18.9193 0.882812 18.8986 0.882812C18.3281 0.882812 17.8346 1.21136 17.5962 1.68942C17.9163 1.70121 18.1971 1.86622 18.3662 2.11446C18.191 1.94628 17.9536 1.84235 17.6915 1.84235C17.2315 1.84235 16.8468 2.16147 16.7443 2.59023C16.7828 2.58205 16.8227 2.57758 16.8636 2.57758C17.1799 2.57758 17.4363 2.83395 17.4363 3.15009C17.4363 3.16969 17.4352 3.18904 17.4333 3.20814C17.4042 2.91915 17.1603 2.69367 16.8636 2.69367C16.567 2.69367 16.3231 2.91921 16.294 3.20814C16.2921 3.22724 16.291 3.24658 16.291 3.26618C16.291 3.58245 16.5474 3.83875 16.8636 3.83875Z" fill="#AD64F1"/>
</g>
<defs>
<clipPath id="clip0_149_18681">
<rect width="24" height="16.967" fill="white"/>
</clipPath>
</defs>
</svg>
