<svg width="21" height="14" viewBox="0 0 21 14" fill="none" xmlns="http://www.w3.org/2000/svg">
<path d="M14.9973 0.756542C14.8903 0.325542 14.5103 0.0165424 14.0653 0.000542164C13.6333 -0.0244579 13.2193 0.261542 13.0793 0.683542L9.89334 10.2375L6.94134 3.59354C6.77834 3.22654 6.39934 2.98554 6.00834 2.99954C5.60634 3.00754 5.24734 3.25454 5.09834 3.62754L3.35034 7.99954H0.0273438V9.99954H3.35034C4.17334 9.99954 4.90234 9.50554 5.20634 8.74254L6.07534 6.57054L9.11234 13.4055C9.27434 13.7685 9.63334 13.9995 10.0273 13.9995C10.0433 13.9995 10.0593 13.9995 10.0753 13.9985C10.4883 13.9775 10.8463 13.7075 10.9753 13.3155L13.8893 4.57354L14.8683 8.48454C15.0903 9.37654 15.8883 9.99954 16.8083 9.99954H20.0273V7.99954H16.8073L14.9973 0.756542Z" fill="#915ECC"/>
</svg>
